<mxfile host="app.diagrams.net" modified="2020-12-08T12:18:32.469Z" agent="5.0 (Windows NT 10.0; Win64; x64) AppleWebKit/537.36 (KHTML, like Gecko) Chrome/87.0.4280.88 Safari/537.36" etag="d82Z_dBuk66obrh4d92j" version="13.11.0" type="github">
  <diagram id="Gv6I4m2x9ljRe2QmFQhr" name="Page-1">
    <mxGraphModel dx="1108" dy="603" grid="1" gridSize="10" guides="1" tooltips="1" connect="1" arrows="1" fold="1" page="1" pageScale="1" pageWidth="827" pageHeight="1169" math="0" shadow="0">
      <root>
        <mxCell id="0" />
        <mxCell id="1" parent="0" />
        <mxCell id="TjWATpUQmkrNQiMJNV-2-4" style="edgeStyle=orthogonalEdgeStyle;rounded=0;orthogonalLoop=1;jettySize=auto;html=1;entryX=0.5;entryY=0;entryDx=0;entryDy=0;" edge="1" parent="1" source="TjWATpUQmkrNQiMJNV-2-1" target="TjWATpUQmkrNQiMJNV-2-3">
          <mxGeometry relative="1" as="geometry" />
        </mxCell>
        <mxCell id="TjWATpUQmkrNQiMJNV-2-5" style="edgeStyle=orthogonalEdgeStyle;rounded=0;orthogonalLoop=1;jettySize=auto;html=1;entryX=0;entryY=0.5;entryDx=0;entryDy=0;" edge="1" parent="1" source="TjWATpUQmkrNQiMJNV-2-1" target="TjWATpUQmkrNQiMJNV-2-2">
          <mxGeometry relative="1" as="geometry" />
        </mxCell>
        <mxCell id="TjWATpUQmkrNQiMJNV-2-1" value="&lt;font style=&quot;font-size: 19px&quot;&gt;Order&lt;/font&gt;" style="rounded=0;whiteSpace=wrap;html=1;" vertex="1" parent="1">
          <mxGeometry x="280" y="150" width="120" height="60" as="geometry" />
        </mxCell>
        <mxCell id="TjWATpUQmkrNQiMJNV-2-2" value="&lt;font style=&quot;font-size: 19px&quot;&gt;Ticket&lt;/font&gt;" style="rounded=0;whiteSpace=wrap;html=1;" vertex="1" parent="1">
          <mxGeometry x="440" y="150" width="120" height="60" as="geometry" />
        </mxCell>
        <mxCell id="TjWATpUQmkrNQiMJNV-2-3" value="&lt;span style=&quot;font-size: 19px&quot;&gt;Payment&lt;/span&gt;" style="rounded=0;whiteSpace=wrap;html=1;" vertex="1" parent="1">
          <mxGeometry x="280" y="240" width="120" height="60" as="geometry" />
        </mxCell>
        <mxCell id="TjWATpUQmkrNQiMJNV-2-61" style="edgeStyle=orthogonalEdgeStyle;rounded=0;orthogonalLoop=1;jettySize=auto;html=1;entryX=0;entryY=0.607;entryDx=0;entryDy=0;entryPerimeter=0;endArrow=none;endFill=0;startArrow=diamondThin;startFill=1;" edge="1" parent="1" source="TjWATpUQmkrNQiMJNV-2-54" target="TjWATpUQmkrNQiMJNV-2-58">
          <mxGeometry relative="1" as="geometry" />
        </mxCell>
        <mxCell id="TjWATpUQmkrNQiMJNV-2-54" value="Order" style="swimlane;fontStyle=1;align=center;verticalAlign=top;childLayout=stackLayout;horizontal=1;startSize=26;horizontalStack=0;resizeParent=1;resizeLast=0;collapsible=1;marginBottom=0;rounded=0;shadow=0;strokeWidth=1;" vertex="1" parent="1">
          <mxGeometry x="1910" y="883" width="240" height="137" as="geometry">
            <mxRectangle x="230" y="140" width="160" height="26" as="alternateBounds" />
          </mxGeometry>
        </mxCell>
        <mxCell id="TjWATpUQmkrNQiMJNV-2-55" value="- id: String" style="text;align=left;verticalAlign=top;spacingLeft=4;spacingRight=4;overflow=hidden;rotatable=0;points=[[0,0.5],[1,0.5]];portConstraint=eastwest;" vertex="1" parent="TjWATpUQmkrNQiMJNV-2-54">
          <mxGeometry y="26" width="240" height="26" as="geometry" />
        </mxCell>
        <mxCell id="TjWATpUQmkrNQiMJNV-2-56" value="" style="line;html=1;strokeWidth=1;align=left;verticalAlign=middle;spacingTop=-1;spacingLeft=3;spacingRight=3;rotatable=0;labelPosition=right;points=[];portConstraint=eastwest;" vertex="1" parent="TjWATpUQmkrNQiMJNV-2-54">
          <mxGeometry y="52" width="240" height="2" as="geometry" />
        </mxCell>
        <mxCell id="TjWATpUQmkrNQiMJNV-2-75" value="&amp;nbsp;+ void bookTicket(departure station, &lt;br&gt;arrival station, departure time, type, trainId,&lt;br&gt;seat)&lt;br&gt;&amp;nbsp;+ void makePayment(total, method)" style="text;html=1;align=left;verticalAlign=middle;resizable=0;points=[];autosize=1;" vertex="1" parent="TjWATpUQmkrNQiMJNV-2-54">
          <mxGeometry y="54" width="240" height="60" as="geometry" />
        </mxCell>
        <mxCell id="TjWATpUQmkrNQiMJNV-2-57" value="Ticket" style="swimlane;fontStyle=1;align=center;verticalAlign=top;childLayout=stackLayout;horizontal=1;startSize=26;horizontalStack=0;resizeParent=1;resizeLast=0;collapsible=1;marginBottom=0;rounded=0;shadow=0;strokeWidth=1;" vertex="1" parent="1">
          <mxGeometry x="2230" y="870" width="160" height="142" as="geometry">
            <mxRectangle x="230" y="140" width="160" height="26" as="alternateBounds" />
          </mxGeometry>
        </mxCell>
        <mxCell id="TjWATpUQmkrNQiMJNV-2-58" value="- id: String&#xa;- departure station: Station&#xa;- arrival station: Station&#xa;- departure time: Date&#xa;- type: Type&#xa;- trainId: String&#xa;- seat: String" style="text;align=left;verticalAlign=top;spacingLeft=4;spacingRight=4;overflow=hidden;rotatable=0;points=[[0,0.5],[1,0.5]];portConstraint=eastwest;" vertex="1" parent="TjWATpUQmkrNQiMJNV-2-57">
          <mxGeometry y="26" width="160" height="114" as="geometry" />
        </mxCell>
        <mxCell id="TjWATpUQmkrNQiMJNV-2-59" value="" style="line;html=1;strokeWidth=1;align=left;verticalAlign=middle;spacingTop=-1;spacingLeft=3;spacingRight=3;rotatable=0;labelPosition=right;points=[];portConstraint=eastwest;" vertex="1" parent="TjWATpUQmkrNQiMJNV-2-57">
          <mxGeometry y="140" width="160" height="2" as="geometry" />
        </mxCell>
        <mxCell id="TjWATpUQmkrNQiMJNV-2-62" value="1..*" style="text;html=1;strokeColor=none;fillColor=none;align=center;verticalAlign=middle;whiteSpace=wrap;rounded=0;" vertex="1" parent="1">
          <mxGeometry x="2190" y="943" width="40" height="20" as="geometry" />
        </mxCell>
        <mxCell id="TjWATpUQmkrNQiMJNV-2-63" value="Payment" style="swimlane;fontStyle=1;align=center;verticalAlign=top;childLayout=stackLayout;horizontal=1;startSize=26;horizontalStack=0;resizeParent=1;resizeLast=0;collapsible=1;marginBottom=0;rounded=0;shadow=0;strokeWidth=1;" vertex="1" parent="1">
          <mxGeometry x="2230" y="1075" width="160" height="90" as="geometry">
            <mxRectangle x="230" y="140" width="160" height="26" as="alternateBounds" />
          </mxGeometry>
        </mxCell>
        <mxCell id="TjWATpUQmkrNQiMJNV-2-64" value="- id: String&#xa;- total: int&#xa;- method: PaymentType" style="text;align=left;verticalAlign=top;spacingLeft=4;spacingRight=4;overflow=hidden;rotatable=0;points=[[0,0.5],[1,0.5]];portConstraint=eastwest;" vertex="1" parent="TjWATpUQmkrNQiMJNV-2-63">
          <mxGeometry y="26" width="160" height="54" as="geometry" />
        </mxCell>
        <mxCell id="TjWATpUQmkrNQiMJNV-2-65" value="" style="line;html=1;strokeWidth=1;align=left;verticalAlign=middle;spacingTop=-1;spacingLeft=3;spacingRight=3;rotatable=0;labelPosition=right;points=[];portConstraint=eastwest;" vertex="1" parent="TjWATpUQmkrNQiMJNV-2-63">
          <mxGeometry y="80" width="160" height="2" as="geometry" />
        </mxCell>
        <mxCell id="TjWATpUQmkrNQiMJNV-2-66" style="edgeStyle=orthogonalEdgeStyle;rounded=0;orthogonalLoop=1;jettySize=auto;html=1;entryX=1;entryY=0.75;entryDx=0;entryDy=0;startArrow=none;startFill=0;endArrow=diamondThin;endFill=1;" edge="1" parent="1" source="TjWATpUQmkrNQiMJNV-2-64" target="TjWATpUQmkrNQiMJNV-2-54">
          <mxGeometry relative="1" as="geometry" />
        </mxCell>
        <mxCell id="TjWATpUQmkrNQiMJNV-2-67" value="1" style="text;html=1;strokeColor=none;fillColor=none;align=center;verticalAlign=middle;whiteSpace=wrap;rounded=0;" vertex="1" parent="1">
          <mxGeometry x="2140" y="963" width="40" height="20" as="geometry" />
        </mxCell>
        <mxCell id="TjWATpUQmkrNQiMJNV-2-68" value="1" style="text;html=1;strokeColor=none;fillColor=none;align=center;verticalAlign=middle;whiteSpace=wrap;rounded=0;" vertex="1" parent="1">
          <mxGeometry x="2200" y="1100" width="20" height="20" as="geometry" />
        </mxCell>
        <mxCell id="TjWATpUQmkrNQiMJNV-2-70" value="Train" style="swimlane;fontStyle=1;align=center;verticalAlign=top;childLayout=stackLayout;horizontal=1;startSize=26;horizontalStack=0;resizeParent=1;resizeLast=0;collapsible=1;marginBottom=0;rounded=0;shadow=0;strokeWidth=1;" vertex="1" parent="1">
          <mxGeometry x="1910" y="670.25" width="210" height="165.5" as="geometry">
            <mxRectangle x="230" y="140" width="160" height="26" as="alternateBounds" />
          </mxGeometry>
        </mxCell>
        <mxCell id="TjWATpUQmkrNQiMJNV-2-71" value="- id: String&#xa;- departure station: Station&#xa;- arrival station: Station&#xa;- departure time: Date&#xa;- seats: Map&lt;String, bool&gt;" style="text;align=left;verticalAlign=top;spacingLeft=4;spacingRight=4;overflow=hidden;rotatable=0;points=[[0,0.5],[1,0.5]];portConstraint=eastwest;" vertex="1" parent="TjWATpUQmkrNQiMJNV-2-70">
          <mxGeometry y="26" width="210" height="84" as="geometry" />
        </mxCell>
        <mxCell id="TjWATpUQmkrNQiMJNV-2-72" value="" style="line;html=1;strokeWidth=1;align=left;verticalAlign=middle;spacingTop=-1;spacingLeft=3;spacingRight=3;rotatable=0;labelPosition=right;points=[];portConstraint=eastwest;" vertex="1" parent="TjWATpUQmkrNQiMJNV-2-70">
          <mxGeometry y="110" width="210" height="2" as="geometry" />
        </mxCell>
        <mxCell id="TjWATpUQmkrNQiMJNV-2-73" value="+ bool isSeatAvaillable()&lt;br&gt;+ List&amp;lt;String&amp;gt; getAvailableSeats()" style="text;html=1;strokeColor=none;fillColor=none;align=left;verticalAlign=middle;whiteSpace=wrap;rounded=0;" vertex="1" parent="TjWATpUQmkrNQiMJNV-2-70">
          <mxGeometry y="112" width="210" height="48" as="geometry" />
        </mxCell>
        <mxCell id="TjWATpUQmkrNQiMJNV-2-78" style="edgeStyle=orthogonalEdgeStyle;rounded=0;orthogonalLoop=1;jettySize=auto;html=1;entryX=0.75;entryY=1;entryDx=0;entryDy=0;startArrow=open;startFill=0;endArrow=none;endFill=0;" edge="1" parent="1" source="TjWATpUQmkrNQiMJNV-2-80" target="TjWATpUQmkrNQiMJNV-2-107">
          <mxGeometry relative="1" as="geometry">
            <Array as="points">
              <mxPoint x="700" y="792" />
              <mxPoint x="580" y="792" />
              <mxPoint x="580" y="714" />
            </Array>
          </mxGeometry>
        </mxCell>
        <mxCell id="TjWATpUQmkrNQiMJNV-2-79" style="edgeStyle=orthogonalEdgeStyle;rounded=0;orthogonalLoop=1;jettySize=auto;html=1;entryX=0.5;entryY=1;entryDx=0;entryDy=0;dashed=1;startArrow=none;startFill=0;endArrow=open;endFill=0;" edge="1" parent="1" source="TjWATpUQmkrNQiMJNV-2-80" target="TjWATpUQmkrNQiMJNV-2-120">
          <mxGeometry relative="1" as="geometry" />
        </mxCell>
        <mxCell id="TjWATpUQmkrNQiMJNV-2-80" value="&lt;&lt;interface&gt;&gt;&#xa;UserRepository" style="swimlane;fontStyle=1;align=center;verticalAlign=top;childLayout=stackLayout;horizontal=1;startSize=40;horizontalStack=0;resizeParent=1;resizeParentMax=0;resizeLast=0;collapsible=1;marginBottom=0;" vertex="1" parent="1">
          <mxGeometry x="620" y="870" width="160" height="124" as="geometry" />
        </mxCell>
        <mxCell id="TjWATpUQmkrNQiMJNV-2-81" value="" style="line;strokeWidth=1;fillColor=none;align=left;verticalAlign=middle;spacingTop=-1;spacingLeft=3;spacingRight=3;rotatable=0;labelPosition=right;points=[];portConstraint=eastwest;" vertex="1" parent="TjWATpUQmkrNQiMJNV-2-80">
          <mxGeometry y="40" width="160" height="8" as="geometry" />
        </mxCell>
        <mxCell id="TjWATpUQmkrNQiMJNV-2-82" value="+ findAll(): List&lt;User&gt;&#xa;+ findById(String): User&#xa;+ save(User): void&#xa;+ deleteById(String): void" style="text;strokeColor=none;fillColor=none;align=left;verticalAlign=top;spacingLeft=4;spacingRight=4;overflow=hidden;rotatable=0;points=[[0,0.5],[1,0.5]];portConstraint=eastwest;" vertex="1" parent="TjWATpUQmkrNQiMJNV-2-80">
          <mxGeometry y="48" width="160" height="76" as="geometry" />
        </mxCell>
        <mxCell id="TjWATpUQmkrNQiMJNV-2-83" value="&lt;&lt;interface&gt;&gt;&#xa;UseCase" style="swimlane;fontStyle=1;align=center;verticalAlign=top;childLayout=stackLayout;horizontal=1;startSize=40;horizontalStack=0;resizeParent=1;resizeParentMax=0;resizeLast=0;collapsible=1;marginBottom=0;" vertex="1" parent="1">
          <mxGeometry x="480" y="345" width="170" height="90" as="geometry" />
        </mxCell>
        <mxCell id="TjWATpUQmkrNQiMJNV-2-84" value="" style="line;strokeWidth=1;fillColor=none;align=left;verticalAlign=middle;spacingTop=-1;spacingLeft=3;spacingRight=3;rotatable=0;labelPosition=right;points=[];portConstraint=eastwest;" vertex="1" parent="TjWATpUQmkrNQiMJNV-2-83">
          <mxGeometry y="40" width="170" height="8" as="geometry" />
        </mxCell>
        <mxCell id="TjWATpUQmkrNQiMJNV-2-85" value="+ execute(Input, Output): void&#xa;+ newInput(): Input" style="text;strokeColor=none;fillColor=none;align=left;verticalAlign=top;spacingLeft=4;spacingRight=4;overflow=hidden;rotatable=0;points=[[0,0.5],[1,0.5]];portConstraint=eastwest;" vertex="1" parent="TjWATpUQmkrNQiMJNV-2-83">
          <mxGeometry y="48" width="170" height="42" as="geometry" />
        </mxCell>
        <mxCell id="TjWATpUQmkrNQiMJNV-2-86" style="edgeStyle=orthogonalEdgeStyle;rounded=0;orthogonalLoop=1;jettySize=auto;html=1;entryX=0.5;entryY=1;entryDx=0;entryDy=0;entryPerimeter=0;startArrow=none;startFill=0;endArrow=block;endFill=0;" edge="1" parent="1" source="TjWATpUQmkrNQiMJNV-2-87" target="TjWATpUQmkrNQiMJNV-2-104">
          <mxGeometry relative="1" as="geometry" />
        </mxCell>
        <mxCell id="TjWATpUQmkrNQiMJNV-2-87" value="CommandPresenter" style="swimlane;fontStyle=1;align=center;verticalAlign=top;childLayout=stackLayout;horizontal=1;startSize=26;horizontalStack=0;resizeParent=1;resizeParentMax=0;resizeLast=0;collapsible=1;marginBottom=0;" vertex="1" parent="1">
          <mxGeometry x="260" y="870" width="160" height="88" as="geometry" />
        </mxCell>
        <mxCell id="TjWATpUQmkrNQiMJNV-2-88" value="- success: Bool&#xa;- message: String&#xa;- id: String" style="text;strokeColor=none;fillColor=none;align=left;verticalAlign=top;spacingLeft=4;spacingRight=4;overflow=hidden;rotatable=0;points=[[0,0.5],[1,0.5]];portConstraint=eastwest;" vertex="1" parent="TjWATpUQmkrNQiMJNV-2-87">
          <mxGeometry y="26" width="160" height="54" as="geometry" />
        </mxCell>
        <mxCell id="TjWATpUQmkrNQiMJNV-2-89" value="" style="line;strokeWidth=1;fillColor=none;align=left;verticalAlign=middle;spacingTop=-1;spacingLeft=3;spacingRight=3;rotatable=0;labelPosition=right;points=[];portConstraint=eastwest;" vertex="1" parent="TjWATpUQmkrNQiMJNV-2-87">
          <mxGeometry y="80" width="160" height="8" as="geometry" />
        </mxCell>
        <mxCell id="TjWATpUQmkrNQiMJNV-2-90" value="Input, Output" style="rounded=0;whiteSpace=wrap;html=1;dashed=1;" vertex="1" parent="1">
          <mxGeometry x="620" y="330" width="80" height="25" as="geometry" />
        </mxCell>
        <mxCell id="TjWATpUQmkrNQiMJNV-2-91" style="edgeStyle=orthogonalEdgeStyle;rounded=0;orthogonalLoop=1;jettySize=auto;html=1;entryX=0.5;entryY=0.992;entryDx=0;entryDy=0;entryPerimeter=0;endArrow=block;endFill=0;" edge="1" parent="1" source="TjWATpUQmkrNQiMJNV-2-92" target="TjWATpUQmkrNQiMJNV-2-85">
          <mxGeometry relative="1" as="geometry" />
        </mxCell>
        <mxCell id="TjWATpUQmkrNQiMJNV-2-92" value="&lt;span style=&quot;font-weight: 700&quot;&gt;&amp;lt;&amp;lt;interface&amp;gt;&amp;gt;&lt;/span&gt;&lt;br style=&quot;padding: 0px ; margin: 0px ; font-weight: 700&quot;&gt;&lt;b&gt;UserRegisterUseCase&lt;/b&gt;&lt;br&gt;&lt;b&gt;&amp;lt;&lt;/b&gt;UserRegisterInput&lt;br&gt;,CommandOutput&lt;b&gt;&amp;gt;&lt;/b&gt;&lt;span style=&quot;font-weight: 700&quot;&gt;&lt;br&gt;&lt;/span&gt;" style="html=1;" vertex="1" parent="1">
          <mxGeometry x="480" y="490" width="170" height="70" as="geometry" />
        </mxCell>
        <mxCell id="TjWATpUQmkrNQiMJNV-2-93" value="&amp;lt;&amp;lt;bind&amp;gt;&amp;gt;:Input::UserRegisterInput&lt;br&gt;Output::CommandOutput" style="text;html=1;strokeColor=none;fillColor=none;align=center;verticalAlign=middle;whiteSpace=wrap;rounded=0;" vertex="1" parent="1">
          <mxGeometry x="605" y="450" width="110" height="30" as="geometry" />
        </mxCell>
        <mxCell id="TjWATpUQmkrNQiMJNV-2-94" value="&lt;span style=&quot;font-weight: 700&quot;&gt;&amp;lt;&amp;lt;interface&amp;gt;&amp;gt;&lt;/span&gt;&lt;br style=&quot;padding: 0px ; margin: 0px ; font-weight: 700&quot;&gt;&lt;span style=&quot;font-weight: 700&quot;&gt;Input&lt;/span&gt;" style="html=1;" vertex="1" parent="1">
          <mxGeometry x="745" y="339" width="110" height="50" as="geometry" />
        </mxCell>
        <mxCell id="TjWATpUQmkrNQiMJNV-2-95" value="&lt;span style=&quot;font-weight: 700&quot;&gt;&amp;lt;&amp;lt;interface&amp;gt;&amp;gt;&lt;/span&gt;&lt;br style=&quot;padding: 0px ; margin: 0px ; font-weight: 700&quot;&gt;&lt;span style=&quot;font-weight: 700&quot;&gt;Output&lt;/span&gt;" style="html=1;" vertex="1" parent="1">
          <mxGeometry x="285" y="345" width="110" height="50" as="geometry" />
        </mxCell>
        <mxCell id="TjWATpUQmkrNQiMJNV-2-96" style="edgeStyle=orthogonalEdgeStyle;rounded=0;orthogonalLoop=1;jettySize=auto;html=1;entryX=0.5;entryY=1;entryDx=0;entryDy=0;endArrow=block;endFill=0;" edge="1" parent="1" source="TjWATpUQmkrNQiMJNV-2-98" target="TjWATpUQmkrNQiMJNV-2-94">
          <mxGeometry relative="1" as="geometry" />
        </mxCell>
        <mxCell id="TjWATpUQmkrNQiMJNV-2-97" style="edgeStyle=orthogonalEdgeStyle;rounded=0;orthogonalLoop=1;jettySize=auto;html=1;startArrow=block;startFill=0;endArrow=none;endFill=0;" edge="1" parent="1" source="TjWATpUQmkrNQiMJNV-2-98">
          <mxGeometry relative="1" as="geometry">
            <mxPoint x="640" y="684" as="targetPoint" />
          </mxGeometry>
        </mxCell>
        <mxCell id="TjWATpUQmkrNQiMJNV-2-98" value="&lt;&lt;interface&gt;&gt;&#xa;UserRegisterInput" style="swimlane;fontStyle=1;align=center;verticalAlign=top;childLayout=stackLayout;horizontal=1;startSize=40;horizontalStack=0;resizeParent=1;resizeParentMax=0;resizeLast=0;collapsible=1;marginBottom=0;" vertex="1" parent="1">
          <mxGeometry x="720" y="640" width="160" height="88" as="geometry" />
        </mxCell>
        <mxCell id="TjWATpUQmkrNQiMJNV-2-99" value="" style="line;strokeWidth=1;fillColor=none;align=left;verticalAlign=middle;spacingTop=-1;spacingLeft=3;spacingRight=3;rotatable=0;labelPosition=right;points=[];portConstraint=eastwest;" vertex="1" parent="TjWATpUQmkrNQiMJNV-2-98">
          <mxGeometry y="40" width="160" height="8" as="geometry" />
        </mxCell>
        <mxCell id="TjWATpUQmkrNQiMJNV-2-100" value="+ setUsername(String): void&#xa;+ getUsername():String" style="text;strokeColor=none;fillColor=none;align=left;verticalAlign=top;spacingLeft=4;spacingRight=4;overflow=hidden;rotatable=0;points=[[0,0.5],[1,0.5]];portConstraint=eastwest;" vertex="1" parent="TjWATpUQmkrNQiMJNV-2-98">
          <mxGeometry y="48" width="160" height="40" as="geometry" />
        </mxCell>
        <mxCell id="TjWATpUQmkrNQiMJNV-2-101" style="edgeStyle=orthogonalEdgeStyle;rounded=0;orthogonalLoop=1;jettySize=auto;html=1;entryX=0.5;entryY=1;entryDx=0;entryDy=0;endArrow=block;endFill=0;" edge="1" parent="1" source="TjWATpUQmkrNQiMJNV-2-102" target="TjWATpUQmkrNQiMJNV-2-95">
          <mxGeometry relative="1" as="geometry" />
        </mxCell>
        <mxCell id="TjWATpUQmkrNQiMJNV-2-102" value="&lt;&lt;interface&gt;&gt;&#xa;CommandOutput" style="swimlane;fontStyle=1;align=center;verticalAlign=top;childLayout=stackLayout;horizontal=1;startSize=40;horizontalStack=0;resizeParent=1;resizeParentMax=0;resizeLast=0;collapsible=1;marginBottom=0;" vertex="1" parent="1">
          <mxGeometry x="260" y="640" width="160" height="190" as="geometry" />
        </mxCell>
        <mxCell id="TjWATpUQmkrNQiMJNV-2-103" value="" style="line;strokeWidth=1;fillColor=none;align=left;verticalAlign=middle;spacingTop=-1;spacingLeft=3;spacingRight=3;rotatable=0;labelPosition=right;points=[];portConstraint=eastwest;" vertex="1" parent="TjWATpUQmkrNQiMJNV-2-102">
          <mxGeometry y="40" width="160" height="8" as="geometry" />
        </mxCell>
        <mxCell id="TjWATpUQmkrNQiMJNV-2-104" value="+ setSuccess(String):&#xa;        CommandOutput&#xa;+ setMessage(String):&#xa;        CommandOutput&#xa;+ setId(String):&#xa;        CommandOutput&#xa;+ getSuccess(): Bool&#xa;+ getMessage(): String&#xa;+ getId(): String" style="text;strokeColor=none;fillColor=none;align=left;verticalAlign=top;spacingLeft=4;spacingRight=4;overflow=hidden;rotatable=0;points=[[0,0.5],[1,0.5]];portConstraint=eastwest;" vertex="1" parent="TjWATpUQmkrNQiMJNV-2-102">
          <mxGeometry y="48" width="160" height="142" as="geometry" />
        </mxCell>
        <mxCell id="TjWATpUQmkrNQiMJNV-2-105" style="edgeStyle=orthogonalEdgeStyle;rounded=0;orthogonalLoop=1;jettySize=auto;html=1;dashed=1;startArrow=none;startFill=0;endArrow=open;endFill=0;entryX=1.003;entryY=0.238;entryDx=0;entryDy=0;entryPerimeter=0;" edge="1" parent="1" source="TjWATpUQmkrNQiMJNV-2-107" target="TjWATpUQmkrNQiMJNV-2-103">
          <mxGeometry relative="1" as="geometry">
            <mxPoint x="430" y="685" as="targetPoint" />
          </mxGeometry>
        </mxCell>
        <mxCell id="TjWATpUQmkrNQiMJNV-2-106" style="edgeStyle=orthogonalEdgeStyle;rounded=0;orthogonalLoop=1;jettySize=auto;html=1;entryX=0.47;entryY=0.986;entryDx=0;entryDy=0;entryPerimeter=0;startArrow=none;startFill=0;endArrow=block;endFill=0;" edge="1" parent="1" source="TjWATpUQmkrNQiMJNV-2-107" target="TjWATpUQmkrNQiMJNV-2-92">
          <mxGeometry relative="1" as="geometry" />
        </mxCell>
        <mxCell id="TjWATpUQmkrNQiMJNV-2-107" value="UserRegisterUseCase" style="swimlane;fontStyle=1;align=center;verticalAlign=top;childLayout=stackLayout;horizontal=1;startSize=26;horizontalStack=0;resizeParent=1;resizeParentMax=0;resizeLast=0;collapsible=1;marginBottom=0;" vertex="1" parent="1">
          <mxGeometry x="480" y="654" width="160" height="60" as="geometry" />
        </mxCell>
        <mxCell id="TjWATpUQmkrNQiMJNV-2-108" value="+ username: String" style="text;strokeColor=none;fillColor=none;align=left;verticalAlign=top;spacingLeft=4;spacingRight=4;overflow=hidden;rotatable=0;points=[[0,0.5],[1,0.5]];portConstraint=eastwest;" vertex="1" parent="TjWATpUQmkrNQiMJNV-2-107">
          <mxGeometry y="26" width="160" height="26" as="geometry" />
        </mxCell>
        <mxCell id="TjWATpUQmkrNQiMJNV-2-109" value="" style="line;strokeWidth=1;fillColor=none;align=left;verticalAlign=middle;spacingTop=-1;spacingLeft=3;spacingRight=3;rotatable=0;labelPosition=right;points=[];portConstraint=eastwest;" vertex="1" parent="TjWATpUQmkrNQiMJNV-2-107">
          <mxGeometry y="52" width="160" height="8" as="geometry" />
        </mxCell>
        <mxCell id="TjWATpUQmkrNQiMJNV-2-110" style="edgeStyle=orthogonalEdgeStyle;rounded=0;orthogonalLoop=1;jettySize=auto;html=1;entryX=0.5;entryY=1;entryDx=0;entryDy=0;startArrow=none;startFill=0;endArrow=open;endFill=0;" edge="1" parent="1" source="TjWATpUQmkrNQiMJNV-2-112" target="TjWATpUQmkrNQiMJNV-2-107">
          <mxGeometry relative="1" as="geometry">
            <Array as="points">
              <mxPoint x="170" y="850" />
              <mxPoint x="560" y="850" />
            </Array>
          </mxGeometry>
        </mxCell>
        <mxCell id="TjWATpUQmkrNQiMJNV-2-111" style="edgeStyle=orthogonalEdgeStyle;rounded=0;orthogonalLoop=1;jettySize=auto;html=1;entryX=-0.005;entryY=0.194;entryDx=0;entryDy=0;entryPerimeter=0;startArrow=none;startFill=0;endArrow=openThin;endFill=0;dashed=1;" edge="1" parent="1" source="TjWATpUQmkrNQiMJNV-2-112" target="TjWATpUQmkrNQiMJNV-2-88">
          <mxGeometry relative="1" as="geometry" />
        </mxCell>
        <mxCell id="TjWATpUQmkrNQiMJNV-2-112" value="UserRegisterController" style="swimlane;fontStyle=1;align=center;verticalAlign=top;childLayout=stackLayout;horizontal=1;startSize=26;horizontalStack=0;resizeParent=1;resizeParentMax=0;resizeLast=0;collapsible=1;marginBottom=0;" vertex="1" parent="1">
          <mxGeometry x="40" y="740" width="160" height="74" as="geometry" />
        </mxCell>
        <mxCell id="TjWATpUQmkrNQiMJNV-2-113" value="" style="line;strokeWidth=1;fillColor=none;align=left;verticalAlign=middle;spacingTop=-1;spacingLeft=3;spacingRight=3;rotatable=0;labelPosition=right;points=[];portConstraint=eastwest;" vertex="1" parent="TjWATpUQmkrNQiMJNV-2-112">
          <mxGeometry y="26" width="160" height="8" as="geometry" />
        </mxCell>
        <mxCell id="TjWATpUQmkrNQiMJNV-2-114" value="+ registerUser(String): &#xa;        ResponseEntity" style="text;strokeColor=none;fillColor=none;align=left;verticalAlign=top;spacingLeft=4;spacingRight=4;overflow=hidden;rotatable=0;points=[[0,0.5],[1,0.5]];portConstraint=eastwest;" vertex="1" parent="TjWATpUQmkrNQiMJNV-2-112">
          <mxGeometry y="34" width="160" height="40" as="geometry" />
        </mxCell>
        <mxCell id="TjWATpUQmkrNQiMJNV-2-115" style="edgeStyle=orthogonalEdgeStyle;rounded=0;orthogonalLoop=1;jettySize=auto;html=1;entryX=0.499;entryY=0.997;entryDx=0;entryDy=0;entryPerimeter=0;startArrow=none;startFill=0;endArrow=block;endFill=0;" edge="1" parent="1" source="TjWATpUQmkrNQiMJNV-2-116" target="TjWATpUQmkrNQiMJNV-2-82">
          <mxGeometry relative="1" as="geometry" />
        </mxCell>
        <mxCell id="TjWATpUQmkrNQiMJNV-2-116" value="UserRepositoryImpl" style="swimlane;fontStyle=1;align=center;verticalAlign=top;childLayout=stackLayout;horizontal=1;startSize=26;horizontalStack=0;resizeParent=1;resizeParentMax=0;resizeLast=0;collapsible=1;marginBottom=0;" vertex="1" parent="1">
          <mxGeometry x="620" y="1040" width="160" height="60" as="geometry" />
        </mxCell>
        <mxCell id="TjWATpUQmkrNQiMJNV-2-117" value="+ dbConnection: " style="text;strokeColor=none;fillColor=none;align=left;verticalAlign=top;spacingLeft=4;spacingRight=4;overflow=hidden;rotatable=0;points=[[0,0.5],[1,0.5]];portConstraint=eastwest;" vertex="1" parent="TjWATpUQmkrNQiMJNV-2-116">
          <mxGeometry y="26" width="160" height="26" as="geometry" />
        </mxCell>
        <mxCell id="TjWATpUQmkrNQiMJNV-2-118" value="" style="line;strokeWidth=1;fillColor=none;align=left;verticalAlign=middle;spacingTop=-1;spacingLeft=3;spacingRight=3;rotatable=0;labelPosition=right;points=[];portConstraint=eastwest;" vertex="1" parent="TjWATpUQmkrNQiMJNV-2-116">
          <mxGeometry y="52" width="160" height="8" as="geometry" />
        </mxCell>
        <mxCell id="TjWATpUQmkrNQiMJNV-2-119" style="edgeStyle=orthogonalEdgeStyle;rounded=0;orthogonalLoop=1;jettySize=auto;html=1;entryX=0.75;entryY=1;entryDx=0;entryDy=0;startArrow=open;startFill=0;endArrow=none;endFill=0;dashed=1;" edge="1" parent="1" source="TjWATpUQmkrNQiMJNV-2-120" target="TjWATpUQmkrNQiMJNV-2-107">
          <mxGeometry relative="1" as="geometry">
            <Array as="points">
              <mxPoint x="935" y="760" />
              <mxPoint x="600" y="760" />
            </Array>
          </mxGeometry>
        </mxCell>
        <mxCell id="TjWATpUQmkrNQiMJNV-2-120" value="User" style="swimlane;fontStyle=1;align=center;verticalAlign=top;childLayout=stackLayout;horizontal=1;startSize=26;horizontalStack=0;resizeParent=1;resizeLast=0;collapsible=1;marginBottom=0;rounded=0;shadow=0;strokeWidth=1;" vertex="1" parent="1">
          <mxGeometry x="800" y="814" width="160" height="60" as="geometry">
            <mxRectangle x="230" y="140" width="160" height="26" as="alternateBounds" />
          </mxGeometry>
        </mxCell>
        <mxCell id="TjWATpUQmkrNQiMJNV-2-121" value="- name: String" style="text;align=left;verticalAlign=top;spacingLeft=4;spacingRight=4;overflow=hidden;rotatable=0;points=[[0,0.5],[1,0.5]];portConstraint=eastwest;" vertex="1" parent="TjWATpUQmkrNQiMJNV-2-120">
          <mxGeometry y="26" width="160" height="26" as="geometry" />
        </mxCell>
        <mxCell id="TjWATpUQmkrNQiMJNV-2-122" value="" style="line;html=1;strokeWidth=1;align=left;verticalAlign=middle;spacingTop=-1;spacingLeft=3;spacingRight=3;rotatable=0;labelPosition=right;points=[];portConstraint=eastwest;" vertex="1" parent="TjWATpUQmkrNQiMJNV-2-120">
          <mxGeometry y="52" width="160" height="2" as="geometry" />
        </mxCell>
        <mxCell id="TjWATpUQmkrNQiMJNV-2-123" value="&lt;&lt;interface&gt;&gt;&#xa;OrderRepository" style="swimlane;fontStyle=1;align=center;verticalAlign=top;childLayout=stackLayout;horizontal=1;startSize=40;horizontalStack=0;resizeParent=1;resizeParentMax=0;resizeLast=0;collapsible=1;marginBottom=0;" vertex="1" parent="1">
          <mxGeometry x="1650" y="883" width="160" height="90" as="geometry" />
        </mxCell>
        <mxCell id="TjWATpUQmkrNQiMJNV-2-124" value="" style="line;strokeWidth=1;fillColor=none;align=left;verticalAlign=middle;spacingTop=-1;spacingLeft=3;spacingRight=3;rotatable=0;labelPosition=right;points=[];portConstraint=eastwest;" vertex="1" parent="TjWATpUQmkrNQiMJNV-2-123">
          <mxGeometry y="40" width="160" height="8" as="geometry" />
        </mxCell>
        <mxCell id="TjWATpUQmkrNQiMJNV-2-125" value="+ findById(String): Order&#xa;+ save(Order): void&#xa;" style="text;strokeColor=none;fillColor=none;align=left;verticalAlign=top;spacingLeft=4;spacingRight=4;overflow=hidden;rotatable=0;points=[[0,0.5],[1,0.5]];portConstraint=eastwest;" vertex="1" parent="TjWATpUQmkrNQiMJNV-2-123">
          <mxGeometry y="48" width="160" height="42" as="geometry" />
        </mxCell>
        <mxCell id="TjWATpUQmkrNQiMJNV-2-126" value="&lt;&lt;interface&gt;&gt;&#xa;TrainRepository" style="swimlane;fontStyle=1;align=center;verticalAlign=top;childLayout=stackLayout;horizontal=1;startSize=40;horizontalStack=0;resizeParent=1;resizeParentMax=0;resizeLast=0;collapsible=1;marginBottom=0;" vertex="1" parent="1">
          <mxGeometry x="1654" y="700" width="160" height="90" as="geometry" />
        </mxCell>
        <mxCell id="TjWATpUQmkrNQiMJNV-2-127" value="" style="line;strokeWidth=1;fillColor=none;align=left;verticalAlign=middle;spacingTop=-1;spacingLeft=3;spacingRight=3;rotatable=0;labelPosition=right;points=[];portConstraint=eastwest;" vertex="1" parent="TjWATpUQmkrNQiMJNV-2-126">
          <mxGeometry y="40" width="160" height="8" as="geometry" />
        </mxCell>
        <mxCell id="TjWATpUQmkrNQiMJNV-2-128" value="+ findById(String): Order&#xa;&#xa;" style="text;strokeColor=none;fillColor=none;align=left;verticalAlign=top;spacingLeft=4;spacingRight=4;overflow=hidden;rotatable=0;points=[[0,0.5],[1,0.5]];portConstraint=eastwest;" vertex="1" parent="TjWATpUQmkrNQiMJNV-2-126">
          <mxGeometry y="48" width="160" height="42" as="geometry" />
        </mxCell>
        <mxCell id="TjWATpUQmkrNQiMJNV-2-129" value="OrderRepositoryImpl" style="swimlane;fontStyle=1;align=center;verticalAlign=top;childLayout=stackLayout;horizontal=1;startSize=26;horizontalStack=0;resizeParent=1;resizeParentMax=0;resizeLast=0;collapsible=1;marginBottom=0;" vertex="1" parent="1">
          <mxGeometry x="1650" y="1030" width="160" height="60" as="geometry" />
        </mxCell>
        <mxCell id="TjWATpUQmkrNQiMJNV-2-130" value="+ dbConnection: " style="text;strokeColor=none;fillColor=none;align=left;verticalAlign=top;spacingLeft=4;spacingRight=4;overflow=hidden;rotatable=0;points=[[0,0.5],[1,0.5]];portConstraint=eastwest;" vertex="1" parent="TjWATpUQmkrNQiMJNV-2-129">
          <mxGeometry y="26" width="160" height="26" as="geometry" />
        </mxCell>
        <mxCell id="TjWATpUQmkrNQiMJNV-2-131" value="" style="line;strokeWidth=1;fillColor=none;align=left;verticalAlign=middle;spacingTop=-1;spacingLeft=3;spacingRight=3;rotatable=0;labelPosition=right;points=[];portConstraint=eastwest;" vertex="1" parent="TjWATpUQmkrNQiMJNV-2-129">
          <mxGeometry y="52" width="160" height="8" as="geometry" />
        </mxCell>
        <mxCell id="TjWATpUQmkrNQiMJNV-2-132" value="TrainRepositoryImpl" style="swimlane;fontStyle=1;align=center;verticalAlign=top;childLayout=stackLayout;horizontal=1;startSize=26;horizontalStack=0;resizeParent=1;resizeParentMax=0;resizeLast=0;collapsible=1;marginBottom=0;" vertex="1" parent="1">
          <mxGeometry x="1654" y="610" width="160" height="60" as="geometry" />
        </mxCell>
        <mxCell id="TjWATpUQmkrNQiMJNV-2-133" value="+ dbConnection: " style="text;strokeColor=none;fillColor=none;align=left;verticalAlign=top;spacingLeft=4;spacingRight=4;overflow=hidden;rotatable=0;points=[[0,0.5],[1,0.5]];portConstraint=eastwest;" vertex="1" parent="TjWATpUQmkrNQiMJNV-2-132">
          <mxGeometry y="26" width="160" height="26" as="geometry" />
        </mxCell>
        <mxCell id="TjWATpUQmkrNQiMJNV-2-134" value="" style="line;strokeWidth=1;fillColor=none;align=left;verticalAlign=middle;spacingTop=-1;spacingLeft=3;spacingRight=3;rotatable=0;labelPosition=right;points=[];portConstraint=eastwest;" vertex="1" parent="TjWATpUQmkrNQiMJNV-2-132">
          <mxGeometry y="52" width="160" height="8" as="geometry" />
        </mxCell>
        <mxCell id="TjWATpUQmkrNQiMJNV-2-150" style="edgeStyle=orthogonalEdgeStyle;rounded=0;orthogonalLoop=1;jettySize=auto;html=1;startArrow=none;startFill=0;endArrow=block;endFill=0;" edge="1" parent="1" source="TjWATpUQmkrNQiMJNV-2-135" target="TjWATpUQmkrNQiMJNV-2-147">
          <mxGeometry relative="1" as="geometry" />
        </mxCell>
        <mxCell id="TjWATpUQmkrNQiMJNV-2-135" value="PurchaseTicket&#xa;UseCase" style="swimlane;fontStyle=1;align=center;verticalAlign=top;childLayout=stackLayout;horizontal=1;startSize=40;horizontalStack=0;resizeParent=1;resizeParentMax=0;resizeLast=0;collapsible=1;marginBottom=0;" vertex="1" parent="1">
          <mxGeometry x="1190" y="486" width="160" height="74" as="geometry" />
        </mxCell>
        <mxCell id="TjWATpUQmkrNQiMJNV-2-136" value="+ username: String" style="text;strokeColor=none;fillColor=none;align=left;verticalAlign=top;spacingLeft=4;spacingRight=4;overflow=hidden;rotatable=0;points=[[0,0.5],[1,0.5]];portConstraint=eastwest;" vertex="1" parent="TjWATpUQmkrNQiMJNV-2-135">
          <mxGeometry y="40" width="160" height="26" as="geometry" />
        </mxCell>
        <mxCell id="TjWATpUQmkrNQiMJNV-2-137" value="" style="line;strokeWidth=1;fillColor=none;align=left;verticalAlign=middle;spacingTop=-1;spacingLeft=3;spacingRight=3;rotatable=0;labelPosition=right;points=[];portConstraint=eastwest;" vertex="1" parent="TjWATpUQmkrNQiMJNV-2-135">
          <mxGeometry y="66" width="160" height="8" as="geometry" />
        </mxCell>
        <mxCell id="TjWATpUQmkrNQiMJNV-2-151" style="edgeStyle=orthogonalEdgeStyle;rounded=0;orthogonalLoop=1;jettySize=auto;html=1;startArrow=none;startFill=0;endArrow=block;endFill=0;" edge="1" parent="1" source="TjWATpUQmkrNQiMJNV-2-146">
          <mxGeometry relative="1" as="geometry">
            <mxPoint x="1490" y="390" as="targetPoint" />
          </mxGeometry>
        </mxCell>
        <mxCell id="TjWATpUQmkrNQiMJNV-2-146" value="&lt;&lt;interface&gt;&gt;&#xa;UserRegisterInput" style="swimlane;fontStyle=1;align=center;verticalAlign=top;childLayout=stackLayout;horizontal=1;startSize=40;horizontalStack=0;resizeParent=1;resizeParentMax=0;resizeLast=0;collapsible=1;marginBottom=0;" vertex="1" parent="1">
          <mxGeometry x="1410" y="481" width="160" height="88" as="geometry" />
        </mxCell>
        <mxCell id="TjWATpUQmkrNQiMJNV-2-147" value="" style="line;strokeWidth=1;fillColor=none;align=left;verticalAlign=middle;spacingTop=-1;spacingLeft=3;spacingRight=3;rotatable=0;labelPosition=right;points=[];portConstraint=eastwest;" vertex="1" parent="TjWATpUQmkrNQiMJNV-2-146">
          <mxGeometry y="40" width="160" height="8" as="geometry" />
        </mxCell>
        <mxCell id="TjWATpUQmkrNQiMJNV-2-148" value="+ setUsername(String): void&#xa;+ getUsername():String" style="text;strokeColor=none;fillColor=none;align=left;verticalAlign=top;spacingLeft=4;spacingRight=4;overflow=hidden;rotatable=0;points=[[0,0.5],[1,0.5]];portConstraint=eastwest;" vertex="1" parent="TjWATpUQmkrNQiMJNV-2-146">
          <mxGeometry y="48" width="160" height="40" as="geometry" />
        </mxCell>
        <mxCell id="TjWATpUQmkrNQiMJNV-2-149" value="&lt;span style=&quot;font-weight: 700&quot;&gt;&amp;lt;&amp;lt;interface&amp;gt;&amp;gt;&lt;/span&gt;&lt;br style=&quot;padding: 0px ; margin: 0px ; font-weight: 700&quot;&gt;&lt;span style=&quot;font-weight: 700&quot;&gt;Input&lt;/span&gt;" style="html=1;" vertex="1" parent="1">
          <mxGeometry x="1430" y="339" width="110" height="50" as="geometry" />
        </mxCell>
        <mxCell id="TjWATpUQmkrNQiMJNV-2-152" value="&lt;&lt;interface&gt;&gt;&#xa;CommandOutput" style="swimlane;fontStyle=1;align=center;verticalAlign=top;childLayout=stackLayout;horizontal=1;startSize=40;horizontalStack=0;resizeParent=1;resizeParentMax=0;resizeLast=0;collapsible=1;marginBottom=0;" vertex="1" parent="1">
          <mxGeometry x="940" y="481" width="160" height="190" as="geometry" />
        </mxCell>
        <mxCell id="TjWATpUQmkrNQiMJNV-2-153" value="" style="line;strokeWidth=1;fillColor=none;align=left;verticalAlign=middle;spacingTop=-1;spacingLeft=3;spacingRight=3;rotatable=0;labelPosition=right;points=[];portConstraint=eastwest;" vertex="1" parent="TjWATpUQmkrNQiMJNV-2-152">
          <mxGeometry y="40" width="160" height="8" as="geometry" />
        </mxCell>
        <mxCell id="TjWATpUQmkrNQiMJNV-2-154" value="+ setSuccess(String):&#xa;        CommandOutput&#xa;+ setMessage(String):&#xa;        CommandOutput&#xa;+ setId(String):&#xa;        CommandOutput&#xa;+ getSuccess(): Bool&#xa;+ getMessage(): String&#xa;+ getId(): String" style="text;strokeColor=none;fillColor=none;align=left;verticalAlign=top;spacingLeft=4;spacingRight=4;overflow=hidden;rotatable=0;points=[[0,0.5],[1,0.5]];portConstraint=eastwest;" vertex="1" parent="TjWATpUQmkrNQiMJNV-2-152">
          <mxGeometry y="48" width="160" height="142" as="geometry" />
        </mxCell>
      </root>
    </mxGraphModel>
  </diagram>
</mxfile>
